<?xml version="1.0" encoding="utf-8"?>
<!-- Generator: Adobe Illustrator 19.1.0, SVG Export Plug-In . SVG Version: 6.00 Build 0)  -->
<!DOCTYPE svg PUBLIC "-//W3C//DTD SVG 1.1//EN" "http://www.w3.org/Graphics/SVG/1.1/DTD/svg11.dtd">
<svg version="1.1" id="Layer_1" xmlns="http://www.w3.org/2000/svg" xmlns:xlink="http://www.w3.org/1999/xlink" x="0px" y="0px"
	 width="68.1px" height="68.1px" viewBox="0 0 68.1 68.1" style="enable-background:new 0 0 68.1 68.1;" xml:space="preserve">
<style type="text/css">
	.st0{fill:#6B737F;}
	.st1{fill:#D7DBE4;}
</style>
<circle class="st0" cx="34" cy="34" r="34"/>
<g>
	<path class="st1" d="M14.4,45.5c0-8.4,0-16.6,0-24.8c0.2-0.1,0.4-0.2,0.6-0.2c4.6,0.1,9.3-0.1,13.9,0.2c3.9,0.3,6.2,3.7,5.2,8.1
		c-0.3,1.2-1.6,2.2-2.3,3.2c2.1,0.5,3.1,2.3,3.3,4.6c0.3,2.9-0.1,5.7-2.9,7.4c-1.1,0.7-2.5,1.3-3.8,1.3
		C23.9,45.6,19.2,45.5,14.4,45.5z M20.2,41c2.6,0,5,0.1,7.5,0c1.5-0.1,2.3-1.3,2.3-3.1c0-1.9-0.9-3.3-2.4-3.4c-2.4-0.1-4.9,0-7.4,0
		C20.2,36.7,20.2,38.7,20.2,41z M20.2,30.5c2.4,0,4.7,0,7,0c1.7,0,1.9-1.3,1.9-2.6c0.1-1.3-0.1-2.7-1.7-2.8C25,24.9,22.6,25,20.2,25
		C20.2,26.9,20.2,28.6,20.2,30.5z"/>
	<path class="st1" d="M54.5,37.8c-4.4,0-8.6,0-12.7,0c-0.3,2.1,0.7,3.5,2.7,4.1c2.7,0.8,4.6-0.1,5.7-2.4c1.4,0,2.7,0,4.1,0
		c0.2,2.4-0.8,4.4-3.1,5.5c-3.5,1.7-7.1,1.7-10.6-0.1c-3.9-2-5.4-7.1-3.6-11.9c2-5.6,9.1-8,14-4.6C54.2,30.5,54.7,33.9,54.5,37.8z
		 M41.7,34.3c2.7,0,5.3,0,7.8,0c0-2.2-1.3-3.6-3.4-3.8C43.9,30.4,42.1,31.9,41.7,34.3z"/>
	<path class="st1" d="M50.7,22.1c0,1,0,1.9,0,2.8c-3.4,0-6.8,0-10.2,0c0-0.9,0-1.8,0-2.8C43.9,22.1,47.2,22.1,50.7,22.1z"/>
</g>
</svg>
