<?xml version="1.0" encoding="utf-8"?>
<!-- Generator: Adobe Illustrator 19.1.0, SVG Export Plug-In . SVG Version: 6.00 Build 0)  -->
<!DOCTYPE svg PUBLIC "-//W3C//DTD SVG 1.1//EN" "http://www.w3.org/Graphics/SVG/1.1/DTD/svg11.dtd">
<svg version="1.1" id="Layer_1" xmlns="http://www.w3.org/2000/svg" xmlns:xlink="http://www.w3.org/1999/xlink" x="0px" y="0px"
	 width="113.3px" height="112.8px" viewBox="0 0 113.3 112.8" style="enable-background:new 0 0 113.3 112.8;" xml:space="preserve"
	>
<style type="text/css">
	.st0{fill:#6B737F;}
	.st1{fill:#D7DBE4;}
</style>
<g>
	<polygon class="st0" points="42.2,92 55.9,105.6 69.6,92 	"/>
	<polygon class="st0" points="92.5,43.7 92.5,69.1 105.2,56.4 	"/>
	<polygon class="st0" points="71.1,22.3 40.7,22.3 22.8,40.2 22.8,72.5 40.7,90.5 71.1,90.5 91,70.6 91,42.2 	"/>
	<polygon class="st0" points="69.6,20.8 55.9,7.1 42.2,20.8 	"/>
	<polygon class="st0" points="21.3,41.7 6.7,56.4 21.3,71 	"/>
	<g>
		<path class="st1" d="M73.3,66c-2.9,3.1-10.5,9.6-16.6,9.6c-4.9,0-8.2-3.7-8.2-9c0-0.9,0.1-1.4,0.1-1.8c-3.4,0.9-10.7,2.4-11.2,2.4
			c-0.2,0-0.4-0.1-0.4-0.4c0-0.3,0.4-0.4,1.4-0.5c2.4-0.3,7-1.4,10.2-2.2C52,49,75.3,37.6,84.6,37.6c2.4,0,5.2,1,5.2,3.9
			c0,10.2-28.1,19.8-35.9,22c-0.7,2-0.9,4.1-0.9,6.2c0,3.2,1.1,5,4.2,5c9,0,21.2-15.6,22.1-15.6c0.1,0,0.5,0.1,0.5,0.5
			c0,0.5-1.6,2-5.6,11.6c-5.3,12.8-16.2,18.4-23.3,18.4c-4.3,0-9.7-1.6-9.7-7c0-1.9,1.1-3.6,3.1-3.6c1.5,0,2.8,0.9,2.8,2.4
			c0,1.9-2,2.7-2,4.4c0,1.6,2.1,3,5.7,3c12.5,0,16.5-15.5,22.9-22.7L73.3,66z M84.7,38.5c-9.6,0-27,11.1-30.6,24.2
			c10.4-2.9,34.8-11.9,34.8-21.3C88.8,39.8,87.5,38.5,84.7,38.5z"/>
	</g>
	<path class="st1" d="M67.6,43.5c0-0.1-0.4,0.8-1.5,1.5L63,48.8c-11.7,12-18.4,18.5-25.3,18.7c-3.3,0.1-6.2-1.2-8.4-3.6
		c-2.3-2.4-3.4-5.4-3.4-9.1c0-8.6,6-16.2,18-22.7c6.3-3.4,11.4-5.2,15.4-5.2c1.7,0,3.2,0.5,4.4,1.5c1.2,1,1.8,2.3,1.8,3.8
		c0,3.4-2.2,6.4-6.7,8.8c-4.5,2.4-12,4.7-22.5,6.8c-3.2,4.9-4.9,9-4.9,12.3c0,4.1,2.2,6.5,6.7,6.2c7.7-0.6,16.7-8.7,27.1-21.2
		c0.6-0.8,1.3-0.5,1.7-0.5C67.1,44.6,67.6,44,67.6,43.5z M61.5,30.2c0-1.5-0.8-2.3-2.5-2.3c-2.5,0-5.9,1.8-10,5.3
		c-4.1,3.5-8.2,8.1-12.1,13.6c6.9-1.8,12.7-4.3,17.5-7.5C59.1,36.1,61.5,33,61.5,30.2z"/>
</g>
</svg>
